HIERARCHY
ROOT Hips
{
	OFFSET 0.000000 89.005402 0.000000
	CHANNELS 6 Xposition Yposition Zposition Xrotation Yrotation Zrotation
	JOINT Spine
	{
		OFFSET 0.116900 10.681000 0.373400
		CHANNELS 3 Xrotation Yrotation Zrotation
		JOINT Spine1
		{
			OFFSET 0.000000 13.840401 0.053500
			CHANNELS 3 Xrotation Yrotation Zrotation
			JOINT Spine2
			{
				OFFSET 0.000000 14.712700 -0.366200
				CHANNELS 3 Xrotation Yrotation Zrotation
				JOINT Neck
				{
					OFFSET 0.000000 35.415497 -3.314200
					CHANNELS 3 Xrotation Yrotation Zrotation
					JOINT Head
					{
						OFFSET 0.000000 16.899200 1.218300
						CHANNELS 3 Xrotation Yrotation Zrotation
						JOINT HeadTop_End
						{
							OFFSET 0.000000 22.206207 2.192500
							CHANNELS 3 Xrotation Yrotation Zrotation
							End Site
							{
								OFFSET 0.000000 22.314178 0.000000
							}
						}
					}
				}
				JOINT LeftShoulder
				{
					OFFSET 12.896400 26.716293 -4.548400
					CHANNELS 3 Xrotation Yrotation Zrotation
					JOINT LeftArm
					{
						OFFSET 19.027000 -4.857010 -1.718400
						CHANNELS 3 Xrotation Yrotation Zrotation
						JOINT LeftForeArm
						{
							OFFSET 24.179897 0.000000 0.000000
							CHANNELS 3 Xrotation Yrotation Zrotation
							JOINT LeftHand
							{
								OFFSET 27.156403 0.000000 0.000000
								CHANNELS 3 Xrotation Yrotation Zrotation
								JOINT LeftHandIndex1
								{
									OFFSET 16.441200 0.000000 0.000000
									CHANNELS 3 Xrotation Yrotation Zrotation
									JOINT LeftHandIndex2
									{
										OFFSET 4.821899 0.000000 0.000000
										CHANNELS 3 Xrotation Yrotation Zrotation
										JOINT LeftHandIndex3
										{
											OFFSET 6.386497 0.000000 0.000000
											CHANNELS 3 Xrotation Yrotation Zrotation
											JOINT LeftHandIndex4
											{
												OFFSET 5.188988 0.000000 0.000000
												CHANNELS 3 Xrotation Yrotation Zrotation
												End Site
												{
													OFFSET -0.178703 5.185913 0.000177
												}
											}
										}
									}
								}
								JOINT LeftHandThumb1
								{
									OFFSET 6.534897 -5.032593 5.900300
									CHANNELS 3 Xrotation Yrotation Zrotation
									JOINT LeftHandThumb2
									{
										OFFSET 3.818176 -2.204422 2.204423
										CHANNELS 3 Xrotation Yrotation Zrotation
										JOINT LeftHandThumb3
										{
											OFFSET 3.252098 -1.877594 1.877601
											CHANNELS 3 Xrotation Yrotation Zrotation
											JOINT LeftHandThumb4
											{
												OFFSET 5.251778 -3.032120 3.032117
												CHANNELS 3 Xrotation Yrotation Zrotation
												End Site
												{
													OFFSET 0.000023 6.780014 0.000000
												}
											}
										}
									}
								}
							}
						}
					}
				}
				JOINT RightShoulder
				{
					OFFSET -12.896300 26.716293 -4.548400
					CHANNELS 3 Xrotation Yrotation Zrotation
					JOINT RightArm
					{
						OFFSET -19.027000 -4.857010 -1.718400
						CHANNELS 3 Xrotation Yrotation Zrotation
						JOINT RightForeArm
						{
							OFFSET -24.179897 0.000000 0.000000
							CHANNELS 3 Xrotation Yrotation Zrotation
							JOINT RightHand
							{
								OFFSET -27.156403 0.000000 0.000000
								CHANNELS 3 Xrotation Yrotation Zrotation
								JOINT RightHandThumb1
								{
									OFFSET -6.591202 -4.852203 5.988100
									CHANNELS 3 Xrotation Yrotation Zrotation
									JOINT RightHandThumb2
									{
										OFFSET -3.818176 -2.204422 2.204423
										CHANNELS 3 Xrotation Yrotation Zrotation
										JOINT RightHandThumb3
										{
											OFFSET -3.252098 -1.877594 1.877601
											CHANNELS 3 Xrotation Yrotation Zrotation
											JOINT RightHandThumb4
											{
												OFFSET -5.251778 -3.032120 3.032117
												CHANNELS 3 Xrotation Yrotation Zrotation
												End Site
												{
													OFFSET -0.000023 6.780014 0.000000
												}
											}
										}
									}
								}
								JOINT RightHandIndex1
								{
									OFFSET -16.029404 0.000000 0.000000
									CHANNELS 3 Xrotation Yrotation Zrotation
									JOINT RightHandIndex2
									{
										OFFSET -5.213303 0.000000 0.000000
										CHANNELS 3 Xrotation Yrotation Zrotation
										JOINT RightHandIndex3
										{
											OFFSET -6.386528 0.000000 0.000000
											CHANNELS 3 Xrotation Yrotation Zrotation
											JOINT RightHandIndex4
											{
												OFFSET -5.189026 0.000000 0.000000
												CHANNELS 3 Xrotation Yrotation Zrotation
												End Site
												{
													OFFSET 0.236702 5.183624 0.001972
												}
											}
										}
									}
								}
							}
						}
					}
				}
			}
		}
	}
	JOINT LeftUpLeg
	{
		OFFSET 14.073000 -7.904099 -1.463000
		CHANNELS 3 Xrotation Yrotation Zrotation
		JOINT LeftLeg
		{
			OFFSET -0.109806 -34.073280 4.093200
			CHANNELS 3 Xrotation Yrotation Zrotation
			JOINT LeftFoot
			{
				OFFSET 0.109806 -29.899420 -6.319000
				CHANNELS 3 Xrotation Yrotation Zrotation
				JOINT LeftToeBase
				{
					OFFSET 1.551100 -14.988700 20.535801
					CHANNELS 3 Xrotation Yrotation Zrotation
					JOINT LeftToe_End
					{
						OFFSET 0.221200 0.570800 13.248301
						CHANNELS 3 Xrotation Yrotation Zrotation
						End Site
						{
							OFFSET 0.000000 13.262435 0.000000
						}
					}
				}
			}
		}
	}
	JOINT RightUpLeg
	{
		OFFSET -13.839300 -7.904099 -1.463000
		CHANNELS 3 Xrotation Yrotation Zrotation
		JOINT RightLeg
		{
			OFFSET 0.109694 -34.073219 4.093300
			CHANNELS 3 Xrotation Yrotation Zrotation
			JOINT RightFoot
			{
				OFFSET -0.109694 -29.899384 -6.319200
				CHANNELS 3 Xrotation Yrotation Zrotation
				JOINT RightToeBase
				{
					OFFSET -1.551100 -14.988700 20.535801
					CHANNELS 3 Xrotation Yrotation Zrotation
					JOINT RightToe_End
					{
						OFFSET -0.221200 0.570900 13.248299
						CHANNELS 3 Xrotation Yrotation Zrotation
						End Site
						{
							OFFSET 0.000000 13.262440 0.000000
						}
					}
				}
			}
		}
	}
}
MOTION
Frames: 6
Frame Time: 0.033333
-1.871457 81.195206 0.845147 3.124283 -6.645495 4.587231 0.678984 1.824664 -6.848588 -3.889432 0.476903 1.586253 -3.905311 0.013162 -1.419635 6.515645 0.354794 -0.582601 -7.873494 4.137534 7.388296 0.000000 -0.000000 0.000000 5.602916 -7.275197 -15.113863 23.835726 -39.623478 -50.368537 -0.000001 -11.466264 -0.000003 -41.915904 -5.149578 4.640846 0.224864 3.723918 -13.438163 0.574504 2.532000 -25.563928 0.050698 0.769855 -7.534587 -0.000000 0.000001 0.000002 12.830675 2.243856 -0.637479 13.595787 31.702849 3.864552 -0.268302 13.952216 18.650378 0.000004 0.000001 0.000002 15.682859 10.041885 18.095140 8.408916 19.901646 44.932748 0.000008 13.335505 -0.000007 -6.427926 9.783879 10.116291 11.651084 -0.424556 1.230922 13.808673 -33.664244 -4.212596 1.048715 -20.122357 -19.714465 -0.000003 -0.000001 -0.000000 0.163429 -3.312561 12.761255 0.458291 -2.016403 25.606722 0.040454 -0.613152 7.548874 0.000001 -0.000001 0.000003 -11.482394 34.453455 -5.169482 36.397607 -10.239626 9.670061 -24.843232 -9.078201 3.381439 0.851635 0.010506 -0.955671 0.000000 -0.000000 -0.000000 -29.097822 -26.152646 -29.881070 33.900162 -7.960240 -9.917986 -4.018238 -17.735611 25.063202 3.657002 0.000000 -0.000065 0.000000 -0.000002 0.000000 
-1.856514 81.387947 0.845403 3.145256 -6.723276 4.519747 0.416404 1.705906 -6.850316 -3.619542 0.457497 1.468721 -3.635591 0.012253 -1.376826 5.825514 0.384671 -0.547043 -7.069368 4.248502 6.685120 0.000000 0.000000 0.000000 5.602193 -7.278914 -15.114637 21.279851 -36.603629 -51.686009 -0.000002 -11.484252 -0.000000 -38.271930 -5.328317 5.265089 -0.116934 2.528256 -15.781811 0.572703 2.528236 -25.523078 0.034794 0.638232 -6.240693 -0.000000 0.000002 0.000003 13.202170 2.410215 1.627671 14.627670 30.402880 3.452329 3.397442 10.987488 15.103497 -0.000000 0.000004 0.000005 14.780236 9.299556 18.528466 5.968915 18.129404 46.321592 0.000009 13.253187 0.000003 -4.052579 9.302178 8.725748 12.141846 -0.091970 -0.752878 17.633756 -35.569737 -1.554267 4.956214 -19.460662 -16.086304 -0.000000 -0.000000 -0.000000 0.008505 -2.617544 12.571396 0.504697 -2.110455 26.895825 0.031779 -0.543715 6.689755 -0.000001 0.000001 -0.000002 -11.165956 33.760215 -5.483569 35.679156 -10.165747 9.659859 -24.472192 -8.428378 3.339076 0.851646 0.010503 -0.955658 0.000000 0.000000 0.000000 -28.160025 -25.543429 -29.015986 33.093325 -8.016283 -9.947993 -3.427303 -18.554381 25.187668 3.654068 -0.000014 -0.000051 0.000000 0.000000 -0.000000 
-1.837087 81.591614 0.848175 3.202550 -6.826459 4.397977 0.087495 1.592247 -6.823610 -3.328336 0.437276 1.355483 -3.344579 0.013773 -1.319704 5.071754 0.417864 -0.515803 -6.192484 4.407020 5.922130 0.000000 -0.000000 -0.000000 5.603540 -7.267752 -15.108920 18.795188 -34.207240 -52.869592 0.000004 -10.431619 0.000014 -36.081577 -6.281668 5.214054 -0.407085 1.656475 -16.835002 0.518999 2.412648 -24.277236 0.018548 0.466322 -4.555419 -0.000000 -0.000000 -0.000000 13.469051 2.358311 3.090471 15.274419 29.168330 3.265928 4.650073 8.099364 12.884866 -0.000003 -0.000001 -0.000000 14.084938 8.685224 18.867407 3.505638 16.250152 47.588701 0.000004 13.218011 0.000007 -2.008166 9.050910 7.224891 12.414159 0.521790 -1.951790 20.192447 -36.373561 0.262807 7.038379 -17.915339 -13.729211 0.000003 -0.000001 -0.000001 -0.040528 -2.298101 11.299550 0.492358 -2.085956 26.558607 0.019637 -0.427705 5.257870 0.000000 -0.000000 0.000001 -10.931316 33.213209 -5.667740 34.964387 -10.095959 9.649326 -24.106886 -7.913022 3.279387 0.851664 0.010501 -0.955632 0.000000 -0.000000 0.000000 -27.469607 -25.324905 -28.326499 32.182137 -8.067520 -9.981154 -2.878476 -18.911575 25.187043 3.650489 -0.000000 -0.000049 -0.000000 0.000000 -0.000000 
-1.814030 81.810562 0.854137 3.266805 -6.942428 4.216700 -0.283991 1.480865 -6.773155 -3.023044 0.417358 1.252459 -3.039377 0.018496 -1.241857 4.269240 0.452712 -0.488515 -5.256943 4.583754 5.096986 0.000000 0.000000 -0.000000 5.607389 -7.241823 -15.112516 16.406118 -32.497261 -53.937065 -0.000002 -8.387589 0.000014 -35.429267 -8.007551 4.507611 -0.540199 1.144445 -16.481419 0.421129 2.182901 -21.836639 0.005527 0.254702 -2.486215 0.000001 0.000001 -0.000000 13.611729 2.041806 3.653118 15.506512 28.036199 3.297190 4.228401 5.462936 11.985328 -0.000002 0.000001 0.000004 13.627321 8.214645 19.101760 1.091513 14.195678 48.694317 0.000004 13.415773 -0.000006 -0.322112 8.988335 5.591104 12.432446 1.463003 -2.265815 21.224251 -36.116261 0.967213 7.366794 -15.711725 -12.756433 -0.000003 -0.000002 -0.000001 0.011059 -2.399232 8.873382 0.420311 -1.935238 24.505481 0.007525 -0.264921 3.253780 0.000002 -0.000000 -0.000000 -10.738165 32.580624 -5.791923 34.231966 -9.979419 9.638873 -23.739038 -7.354570 3.203436 0.851630 0.010501 -0.955672 0.000000 -0.000001 -0.000000 -26.923890 -25.463406 -27.752793 31.142210 -8.122047 -10.018883 -2.352607 -18.873478 25.080313 3.645453 -0.000010 -0.000041 -0.000000 0.000002 -0.000000 
-1.787580 82.046364 0.867293 3.313977 -7.038742 3.997417 -0.682675 1.361533 -6.700638 -2.703574 0.394951 1.138672 -2.719799 0.023456 -1.166094 3.454432 0.487763 -0.466065 -4.270338 4.748903 4.214840 -0.000000 0.000000 0.000000 5.612046 -7.217574 -15.155666 14.664469 -31.142213 -54.592182 0.000010 -6.528757 0.000010 -36.172470 -9.892743 3.465249 -0.498452 0.990691 -14.915817 0.304235 1.865087 -18.527768 0.000022 0.017887 -0.174515 -0.000000 -0.000000 0.000001 13.630011 1.491260 3.388553 15.368072 27.038514 3.488857 3.551252 2.923144 12.210040 0.000001 -0.000000 0.000002 13.400428 7.882721 19.237317 -1.285610 11.999377 49.678011 -0.000004 13.784455 0.000007 1.040813 9.122355 3.844098 12.212032 2.671909 -1.758539 20.838689 -34.985602 0.609368 6.645054 -12.997765 -12.968882 -0.000001 -0.000002 -0.000001 0.092751 -2.913947 5.502581 0.312025 -1.677607 21.071388 0.000524 -0.069754 0.856246 0.000002 -0.000001 0.000000 -10.528407 32.049006 -5.840142 33.457333 -9.857783 9.627300 -23.353395 -6.940185 3.100782 0.851636 0.010507 -0.955660 0.000000 -0.000000 0.000000 -26.434635 -25.892518 -27.267724 29.976987 -8.168909 -10.062434 -1.832297 -18.561085 24.905868 3.639434 -0.000008 -0.000066 0.000000 -0.000000 -0.000000 
-1.753741 82.296585 0.891909 3.318126 -7.052441 3.763672 -1.091041 1.220828 -6.577444 -2.361040 0.363248 0.978110 -2.376965 0.021712 -1.131242 2.670667 0.519598 -0.452466 -3.225006 4.897793 3.302029 -0.000000 0.000000 -0.000000 5.613362 -7.227611 -15.270184 14.217977 -29.720680 -54.458017 0.000007 -6.264419 -0.000012 -37.995396 -11.195188 2.488991 -0.348442 1.143899 -12.619830 0.197417 1.509520 -14.901120 0.004068 -0.218587 2.133518 -0.000001 0.000000 -0.000001 13.553807 0.814375 2.536152 14.971221 26.195649 3.750628 2.895602 0.578153 13.093555 -0.000000 0.000002 0.000003 13.359197 7.672140 19.277114 -3.713731 9.768689 50.644302 -0.000000 14.025227 -0.000004 2.173779 9.529006 1.994524 11.826822 3.993939 -0.657850 19.794674 -33.257567 -0.391087 5.703411 -10.006213 -13.931259 0.000001 0.000002 0.000000 0.096544 -3.771120 1.643604 0.202871 -1.360954 16.956127 0.001866 0.132018 -1.620828 0.000003 -0.000000 0.000000 -10.250663 31.605642 -5.859040 32.624634 -9.749434 9.613518 -22.933156 -6.699720 2.980805 0.851654 0.010504 -0.955652 0.000000 0.000000 0.000000 -25.957446 -26.610931 -26.904148 28.700595 -8.211691 -10.112384 -1.315365 -18.027222 24.702236 3.631531 0.000006 -0.000067 0.000000 0.000000 -0.000000 
